<?xml version="1.0" standalone="no"?>
<!DOCTYPE svg PUBLIC "-//W3C//DTD SVG 20010904//EN"
 "http://www.w3.org/TR/2001/REC-SVG-20010904/DTD/svg10.dtd">
<svg version="1.0" xmlns="http://www.w3.org/2000/svg"
 width="500.000000pt" height="500.000000pt" viewBox="0 0 500.000000 500.000000"
 preserveAspectRatio="xMidYMid meet">

<g transform="translate(0.000000,500.000000) scale(0.100000,-0.100000)"
fill="#000000" stroke="none">
<path d="M2445 3589 c-256 -27 -499 -160 -657 -358 -38 -48 -57 -79 -53 -90 3
-8 3 -12 -1 -9 -8 8 -26 -9 -43 -40 -10 -20 -9 -22 11 -22 19 0 20 -2 8 -10
-8 -5 -10 -10 -5 -10 13 1 51 29 47 36 -2 3 -1 9 3 12 4 4 5 0 3 -8 -2 -12 10
-15 68 -15 l72 1 -15 -23 c-14 -22 -14 -23 2 -17 10 4 16 3 13 -2 -54 -116
-72 -156 -83 -189 -18 -53 -35 -149 -35 -197 0 -21 -2 -38 -5 -38 -13 0 -74
35 -134 77 -50 34 -66 41 -73 31 -16 -24 -2 -276 20 -360 79 -293 276 -532
544 -658 96 -45 231 -82 303 -84 l50 -1 0 70 c0 39 -2 112 -5 164 l-5 95 85 2
c286 6 531 197 616 480 24 79 24 245 0 334 -25 91 -90 211 -147 272 -27 29
-49 56 -49 61 0 4 -4 6 -8 3 -4 -2 -6 11 -4 30 2 19 7 34 11 34 9 0 112 -108
143 -150 35 -49 71 -123 99 -205 21 -61 24 -88 24 -205 -1 -119 -4 -144 -28
-215 -35 -105 -88 -193 -162 -270 -106 -110 -220 -171 -381 -204 -68 -13 -85
-21 -107 -47 l-27 -31 11 -114 c6 -63 12 -115 13 -116 7 -7 182 19 251 38 254
66 484 248 618 489 47 84 93 224 107 326 12 85 11 267 -3 280 -4 4 -17 -2 -30
-13 -23 -23 -166 -113 -178 -113 -3 0 -12 41 -18 92 -14 109 -52 230 -96 302
-22 37 -29 58 -24 72 4 10 8 13 8 7 1 -7 14 -13 29 -13 15 0 34 -6 41 -12 11
-11 13 -10 9 3 -5 12 0 14 26 11 17 -3 34 -10 38 -16 5 -8 8 -7 8 2 0 6 8 12
18 12 10 0 19 7 19 15 0 18 -13 20 -20 3 -4 -10 -6 -10 -6 -1 -1 7 7 17 18 22
15 8 18 7 18 -7 0 -34 3 -42 17 -42 8 0 17 -6 19 -12 4 -9 6 -10 6 -1 1 6 -5
18 -11 25 -7 7 -14 20 -16 28 -2 8 -11 21 -20 28 -9 7 -15 15 -13 19 2 3 -19
35 -46 72 -51 69 -143 154 -223 208 -126 85 -312 152 -430 156 l-65 2 0 -60
c0 -33 4 -108 9 -167 l8 -108 -59 0 c-192 -1 -370 -75 -495 -204 -113 -117
-168 -246 -176 -414 -9 -201 46 -349 180 -488 40 -41 49 -57 46 -80 l-3 -29
-44 40 c-148 134 -231 322 -232 530 -1 122 17 199 74 315 53 111 185 246 292
302 73 38 200 78 247 78 16 0 42 13 64 32 l36 32 -7 95 c-7 104 -14 142 -24
140 -3 -1 -42 -5 -86 -10z m522 -534 c15 -130 42 -455 42 -507 l1 -66 -47 -11
c-120 -26 -167 -33 -288 -41 l-130 -10 -78 83 -77 82 6 -79 7 -79 -54 7 c-91
11 -224 37 -238 45 -10 6 -15 50 -18 162 l-5 154 29 55 c54 102 169 144 276
101 43 -18 79 -48 182 -151 71 -72 130 -129 131 -127 2 2 -1 80 -7 175 -9 134
-8 177 1 199 l13 28 126 0 c119 0 126 -1 128 -20z"/>
<path d="M1851 3044 c0 -11 3 -14 6 -6 3 7 2 16 -1 19 -3 4 -6 -2 -5 -13z"/>
</g>
</svg>
