<?xml version="1.0" standalone="no"?>
<!DOCTYPE svg PUBLIC "-//W3C//DTD SVG 20010904//EN"
 "http://www.w3.org/TR/2001/REC-SVG-20010904/DTD/svg10.dtd">
<svg version="1.0" xmlns="http://www.w3.org/2000/svg"
 width="562.000000pt" height="512.000000pt" viewBox="0 0 562.000000 512.000000"
 preserveAspectRatio="xMidYMid meet">

<g transform="translate(0.000000,512.000000) scale(0.100000,-0.100000)"
fill="#ffffff" stroke="none">
<path d="M570 2605 c0 -1488 -1 -1434 50 -1535 55 -107 158 -193 277 -230 51
-16 93 -20 199 -20 l134 0 0 838 c0 462 3 920 7 1020 l6 182 27 -38 c15 -20
162 -224 327 -452 164 -228 425 -590 578 -803 154 -214 303 -417 331 -451 67
-81 166 -156 279 -211 171 -83 130 -79 927 -83 667 -3 712 -2 801 17 328 67
570 311 633 639 55 287 -55 600 -271 775 -69 55 -168 111 -525 299 -702 370
-1007 533 -1028 552 -30 27 -52 68 -52 99 0 37 41 91 80 104 26 9 260 12 913
12 482 1 877 4 877 7 0 6 -429 609 -456 641 l-19 22 -590 5 c-324 3 -644 1
-711 -4 -219 -15 -384 -89 -529 -234 -98 -99 -165 -209 -201 -331 -23 -79 -27
-108 -27 -230 0 -123 3 -151 27 -228 49 -163 129 -287 245 -384 71 -58 80 -63
506 -288 154 -81 375 -198 490 -260 116 -62 269 -143 340 -180 206 -107 232
-124 256 -170 17 -32 20 -50 15 -80 -11 -55 -60 -101 -117 -110 -24 -3 -312
-5 -639 -3 l-595 3 -54 30 c-67 37 -31 -11 -775 1025 -598 833 -848 1172 -906
1230 -101 100 -207 159 -350 195 -36 10 -129 15 -268 17 l-212 3 0 -1390z"/>
</g>
</svg>
